# xmcd
#
# Track frame offsets: 
#        182
#        13340
#        29235
#        47372
#        57182
#        78632
#        102190
#        116207
#        129762
#        147302
#        162820
#        172400
#        188580
#
# Disc length: 2799 seconds
#
# Revision: 4
# Processed by: cddbd v1.5.2PL0 Copyright (c) Steve Scherf et al.
# Submitted via: ExactAudioCopy v1.1
#
DISCID=b40aed0d
DTITLE=Alvin Youngblood Hart - Start With The Soul
DYEAR=2000
DGENRE=Blues
TTITLE0=Fightin' Hard
TTITLE1=Manos Arriba
TTITLE2=Treat Her Like A Lady
TTITLE3=Once Again
TTITLE4=Porch Monkeys' Theme
TTITLE5=Electric Eel
TTITLE6=Back To Memphis
TTITLE7=Cowboy Boots
TTITLE8=A Prophet's Mission
TTITLE9=Cryin' Shame
TTITLE10=The Hustler
TTITLE11=Maxwell Street Jimmy
TTITLE12=Will I Ever Get Back Home?
EXTD=YEAR: 2000
EXTT0=
EXTT1=
EXTT2=
EXTT3=
EXTT4=
EXTT5=
EXTT6=
EXTT7=
EXTT8=
EXTT9=
EXTT10=
EXTT11=
EXTT12=
PLAYORDER=
